<svg enable-background="new 0 0 512 512" height="512" viewBox="0 0 512 512" width="512" xmlns="http://www.w3.org/2000/svg"><g id="_x39_16_x2C__Arrow_x2C__Down_x2C__Full"><g><g><path d="m426 385.998c13.785 0 25-11.215 25-25s-11.215-25-25-25-25 11.215-25 25 11.215 25 25 25z"/><path d="m350.762 237.889c-45.146 0-164.994 0-209.523 0l104.761 211.83z"/><path d="m294.336 227.889 56.426-114.093h-209.524l56.426 114.093z"/><path d="m446 145.998c8.271 0 15-6.729 15-15 0-8.272-6.729-15-15-15s-15 6.729-15 15 6.729 15 15 15z"/><path d="m71 315.998c11.028 0 20-8.973 20-20 0-11.029-8.972-20-20-20s-20 8.971-20 20c0 11.027 8.972 20 20 20z"/><circle cx="75.997" cy="170.995" r="10"/><circle cx="205.997" cy="71" r="10"/><circle cx="116.003" cy="420.994" r="9.999"/><circle cx="345.998" cy="441" r="10"/><circle cx="416.003" cy="240.995" r="10"/></g></g></g></svg>