<svg viewBox="0 0 32 32" xmlns="http://www.w3.org/2000/svg"><g id="Layer_2" data-name="Layer 2"><path d="m16 5.5a10.5 10.5 0 1 0 10.5 10.5 10.51148 10.51148 0 0 0 -10.5-10.5zm4.78 14.12a.99885.99885 0 0 1 -.78.38.96239.96239 0 0 1 -.62012-.22l-4-3a1.00078 1.00078 0 0 1 -.37988-.78v-7a1 1 0 0 1 2 0v6.52l3.62012 2.7a.98171.98171 0 0 1 .15988 1.4z"/><path d="m16 1a15 15 0 1 0 15 15 15.01828 15.01828 0 0 0 -15-15zm0 27.56665a12.56665 12.56665 0 1 1 12.56665-12.56665 12.57878 12.57878 0 0 1 -12.56665 12.56665z"/></g></svg>